<svg width="164" height="40" viewBox="0 0 164 40" fill="none" xmlns="http://www.w3.org/2000/svg">
<path d="M153.806 21.2765L147.37 30.2045H144.472L152.066 19.6532L145.573 10.5513H148.472L153.806 18.0299L159.139 10.5513H162.038L155.545 19.6532L163.139 30.2045H160.241L153.806 21.2765Z" fill="#F9FAF8"/>
<path fill-rule="evenodd" clip-rule="evenodd" d="M60.2083 3.38827C60.2083 1.46963 58.6574 0 56.7388 0C54.8202 0 53.2693 1.47122 53.2693 3.38827C53.2693 5.30531 54.8202 6.77494 56.7388 6.77494C58.6574 6.77494 60.2083 5.3069 60.2083 3.38827ZM54.0861 10.4084V30.2046H59.3915V10.4084H54.0861ZM48.8206 14.8985C49.596 14.8985 50.3714 14.9797 50.7392 15.1023L51.3458 10.1584C50.7526 10.0556 50.1519 10.0024 49.5498 9.99922C47.1392 9.99922 44.9785 10.9386 43.7955 12.4083V10.4084H38.6924V30.2046H44.0041V19.1084C44.0041 16.7821 46.4943 14.8985 48.8206 14.8985ZM75.0654 9.99925C72.9574 9.97101 70.9056 10.6788 69.2633 12.0007V10.4085H64.1682V40H69.4751V28.8162C70.9839 30.0094 72.8587 30.6444 74.782 30.6139C77.7212 30.6139 80.5363 29.3066 82.2909 27.2702C83.8433 25.4741 84.7812 23.0253 84.7812 20.3312C84.7796 14.4893 80.4519 9.99925 75.0654 9.99925ZM74.4205 25.7958C71.1246 25.7958 68.9592 23.5205 68.9592 20.344C68.9592 17.1675 71.1246 14.8922 74.4205 14.8922C77.234 14.8922 79.5157 17.3331 79.5157 20.344C79.5157 23.3549 77.234 25.7958 74.4205 25.7958ZM111.677 30.2046H116.984V1.22597H111.677V30.2046ZM138.618 27.0616C136.699 29.3464 133.556 30.6122 130.497 30.6122C124.579 30.6122 120.13 26.5313 120.13 20.3264C120.13 14.8157 123.885 9.99922 129.763 9.99922C135.233 9.99922 139.11 14.6167 139.11 20.1226C139.113 20.6284 139.072 21.1335 138.987 21.632H125.27C125.555 24.4089 127.8 26.3259 130.617 26.3259C132.862 26.3259 134.658 25.0617 135.597 24.0411L138.618 27.0616ZM133.682 17.755C133.523 16.0035 131.93 14.2855 129.763 14.2855C127.558 14.2855 125.764 15.9589 125.518 17.755H133.682ZM93.0258 12.0006C94.6664 10.6801 96.7157 9.97242 98.8215 9.99917C104.208 9.99917 108.534 14.4893 108.542 20.3311C108.542 23.0252 107.606 25.4741 106.053 27.2701C104.299 29.3065 101.484 30.6138 98.5445 30.6138C96.6212 30.6444 94.7464 30.0093 93.2376 28.8161V40H87.9307V10.4084H93.0258V12.0006ZM92.7217 20.3439C92.7217 23.5204 94.8887 25.7957 98.1846 25.7957H98.1767C100.99 25.7957 103.28 23.3548 103.28 20.3439C103.28 17.333 100.998 14.8921 98.1846 14.8921C94.8887 14.8921 92.7217 17.1674 92.7217 20.3439Z" fill="#F9FAF8"/>
<path d="M27.7585 22.3461C26.5611 21.6551 25.2109 21.4545 23.875 21.4067C22.7605 21.3685 21.0807 20.6504 21.0807 18.6108C21.0807 17.0902 22.313 15.8674 23.875 15.8132C25.2125 15.767 26.5611 15.5648 27.7585 14.8738C28.8345 14.2527 29.7281 13.3593 30.3495 12.2834C30.9708 11.2074 31.2979 9.98691 31.298 8.74447C31.2981 7.50203 30.9711 6.28145 30.3498 5.20546C29.7286 4.12946 28.8351 3.23595 27.7591 2.61475C26.6831 1.99355 25.4626 1.66655 24.2201 1.66663C22.9777 1.6667 21.7571 1.99384 20.6812 2.61517C19.6053 3.2365 18.7119 4.13011 18.0908 5.20619C17.4697 6.28226 17.1429 7.50287 17.1431 8.74532C17.1431 10.1162 17.6303 11.3789 18.2576 12.5492C18.7815 13.5332 19.0537 15.3594 17.2513 16.396C15.9155 17.1666 14.25 16.6794 13.4173 15.3467C12.7135 14.221 11.8648 13.1669 10.677 12.4807C9.60109 11.8598 8.3807 11.5331 7.13848 11.5333C5.89627 11.5335 4.67599 11.8607 3.60027 12.4819C2.52456 13.1032 1.63129 13.9966 1.01025 15.0724C0.389206 16.1482 0.0622559 17.3686 0.0622559 18.6108C0.0622559 19.853 0.389206 21.0733 1.01025 22.1491C1.63129 23.225 2.52456 24.1184 3.60027 24.7396C4.67599 25.3609 5.89627 25.688 7.13848 25.6882C8.3807 25.6884 9.60109 25.3617 10.677 24.7409C11.8648 24.0546 12.7135 23.0005 13.4157 21.8748C13.9936 20.9514 15.4346 19.7747 17.2513 20.824C18.584 21.5946 19.0028 23.2824 18.2576 24.6724C17.6351 25.8427 17.1431 27.1037 17.1431 28.4746C17.1429 29.7171 17.4697 30.9377 18.0908 32.0138C18.7119 33.0898 19.6053 33.9835 20.6812 34.6048C21.7571 35.2261 22.9777 35.5533 24.2201 35.5533C25.4626 35.5534 26.6831 35.2264 27.7591 34.6052C28.8351 33.984 29.7286 33.0905 30.3498 32.0145C30.9711 30.9385 31.2981 29.7179 31.298 28.4755C31.2979 27.233 30.9708 26.0125 30.3495 24.9366C29.7281 23.8606 28.8345 22.9672 27.7585 22.3461Z" fill="url(#paint0_linear)"/>
<defs>
<linearGradient id="paint0_linear" x1="0.0622559" y1="1.66663" x2="33.8368" y2="32.799" gradientUnits="userSpaceOnUse">
<stop stop-color="#1DB4FF"/>
<stop offset="1" stop-color="#0F72E5"/>
</linearGradient>
</defs>
</svg>
