<svg width="1440" height="384" viewBox="0 0 1440 384" fill="none" xmlns="http://www.w3.org/2000/svg">
<g clip-path="url(#clip0)">
<rect width="1440" height="384" fill="#1D1D1D"/>
<path d="M1455.36 387.462V467.167L1287.85 301.296C1227.26 241.175 1227.26 143.845 1287.85 83.7243L1455.36 -82.3427V-2.63833L1328.12 123.478C1289.81 161.47 1289.81 223.158 1328.12 261.345L1455.36 387.462Z" stroke="white" stroke-width="2" stroke-miterlimit="10"/>
<path d="M-43.6106 -2.63718V-82.3415L123.897 83.5296C184.489 143.651 184.489 240.98 123.897 301.101L-43.6106 466.972V387.268L83.6325 261.151C121.942 223.159 121.942 161.471 83.6325 123.284L-43.6106 -2.63718Z" stroke="white" stroke-width="2" stroke-miterlimit="10"/>
<path d="M1080.49 329.693V289.742L1164.34 372.776C1194.63 402.739 1194.63 451.501 1164.34 481.659L1080.68 564.693V524.743L1144.4 461.684C1163.56 442.689 1163.56 411.747 1144.4 392.751L1080.49 329.693Z" stroke="white" stroke-width="2" stroke-miterlimit="10"/>
<path d="M1080.49 -139.527V-179.477L1164.34 -96.4435C1194.63 -66.481 1194.63 -17.7183 1164.34 12.44L1080.68 95.4734V55.5234L1144.4 -7.53503C1163.56 -26.5309 1163.56 -57.4726 1144.4 -76.4685L1080.49 -139.527Z" stroke="white" stroke-width="2" stroke-miterlimit="10"/>
<path d="M331.257 54.9369V94.887L247.406 11.8534C217.11 -18.1091 217.11 -66.8717 247.406 -97.0301L331.061 -180.064V-140.113L267.342 -77.055C248.187 -58.0591 248.187 -27.1174 267.342 -8.1215L331.257 54.9369Z" stroke="white" stroke-width="2" stroke-miterlimit="10"/>
<path d="M331.257 524.351V564.301L247.406 481.267C217.11 451.304 217.11 402.542 247.406 372.384L331.061 289.35V329.3L267.342 392.359C248.187 411.354 248.187 442.296 267.342 461.292L331.257 524.351Z" stroke="white" stroke-width="2" stroke-miterlimit="10"/>
</g>
<defs>
<clipPath id="clip0">
<rect width="1440" height="384" fill="white"/>
</clipPath>
</defs>
</svg>
