<svg width="220" height="50" viewBox="0 0 220 50" fill="none" xmlns="http://www.w3.org/2000/svg">
<g clip-path="url(#clip0)">
<path fill-rule="evenodd" clip-rule="evenodd" d="M6.52561 29.4768L18.0932 28.4585L21.7834 37.7912H1.59424L6.52561 29.4768Z" fill="#6464FF"/>
<path fill-rule="evenodd" clip-rule="evenodd" d="M10.813 19.3501C10.813 18.8853 10.3316 18.0523 9.57316 18.0523C9.43248 18.0523 8.95422 18.0523 8.13847 18.0523C7.51777 18.1522 7.20744 18.6201 7.20744 19.456C7.20744 20.2919 7.51777 20.7323 8.13847 20.7773C8.13847 21.5052 8.13847 22.0583 8.13847 22.4366C7.99208 22.7012 0.42562 37.1941 0.221908 37.586C-0.512516 38.9992 0.76037 39.8011 1.36867 39.7633C2.1936 39.7121 7.17671 39.3602 11.6595 39.3704C15.3902 39.3789 21.0631 39.6881 22.1734 39.7633C22.9768 39.8177 23.9829 38.8138 23.3596 37.6984C23.0833 37.204 20.5175 32.1167 15.6622 22.4366V20.7467C16.2828 20.6438 16.5932 20.2136 16.5932 19.456C16.5932 18.6159 16.2828 18.148 15.6622 18.0523H14.288C13.9684 18.0263 13.6694 18.1477 13.3909 18.4167C13.1123 18.6856 12.9763 18.9843 12.9828 19.3125V22.4366C12.9737 22.7071 12.984 22.9133 13.0136 23.0557C13.0432 23.198 13.1143 23.3822 13.2267 23.6084L19.96 36.9293C16.2813 36.7624 13.5535 36.679 11.7769 36.679C9.46275 36.679 5.60653 36.8547 3.62181 36.912C3.92184 36.3285 6.26268 31.8338 10.6443 23.4277C10.7695 23.1814 10.8257 22.9023 10.813 22.5905C10.813 21.9326 10.813 19.815 10.813 19.3501Z" fill="white"/>
<path d="M16.1962 9.77645L17.0927 9.396L16.0304 12.0787C15.6459 13.0497 14.5513 13.5144 13.5856 13.1164L10.918 12.0169L11.8144 11.6365L13.841 12.4717C14.4525 12.7237 15.1458 12.4295 15.3893 11.8144L16.1962 9.77645Z" fill="#6464FF"/>
<path d="M14.0559 16.9277L13.1628 17.3068L14.2286 14.6197C14.6121 13.653 15.7025 13.1901 16.6643 13.5858L19.3375 14.6858L18.4445 15.0649L16.4097 14.2276C15.8006 13.977 15.11 14.2702 14.8672 14.8825L14.0559 16.9277Z" fill="#6464FF"/>
<path d="M11.3273 13.2202L11.9972 13.4774L10.0743 14.3209C9.37832 14.6263 8.56032 14.3122 8.2474 13.6196L7.38281 11.7061L8.05268 11.9633L8.70952 13.4169C8.90769 13.8556 9.4257 14.0544 9.86653 13.861L11.3273 13.2202Z" fill="#6464FF"/>
<path d="M6.57048 15.8184L5.90308 15.5622L7.83004 14.7182C8.5233 14.4146 9.33825 14.7274 9.65021 15.417L10.5175 17.3335L9.85007 17.0774L9.18994 15.6185C8.99233 15.1818 8.47625 14.9837 8.03718 15.176L6.57048 15.8184Z" fill="#6464FF"/>
<path d="M12.1165 6.21963L12.6908 6.08704L11.7848 7.61397C11.4569 8.16666 10.7556 8.32863 10.2185 7.97558L8.73486 7.00036L9.30916 6.86777L10.4363 7.60862C10.7764 7.8322 11.2206 7.72967 11.4283 7.3796L12.1165 6.21963Z" fill="#6464FF"/>
<path d="M10.1153 10.368L9.54321 10.5001L10.4517 8.97092C10.7786 8.42072 11.4773 8.2594 12.0122 8.61062L13.4992 9.58681L12.927 9.7189L11.7952 8.9759C11.4564 8.75348 11.014 8.85562 10.8069 9.20403L10.1153 10.368Z" fill="#6464FF"/>
<path d="M15.6141 1.0476L16.0447 1.21291L14.8037 1.76801C14.3545 1.96895 13.8286 1.7671 13.6292 1.31717L13.0784 0.0742188L13.509 0.239527L13.9275 1.18376C14.0538 1.46872 14.3868 1.59655 14.6713 1.4693L15.6141 1.0476Z" fill="#6464FF"/>
<path d="M12.5421 2.75371L12.113 2.58901L13.3567 2.03357C13.8042 1.83374 14.3281 2.03484 14.5269 2.48274L15.0794 3.72771L14.6504 3.56301L14.2298 2.6154C14.1039 2.33173 13.7721 2.20437 13.4887 2.33093L12.5421 2.75371Z" fill="#6464FF"/>
<path fill-rule="evenodd" clip-rule="evenodd" d="M43.6166 29.3508L49.1899 39.577C49.3456 39.8567 49.1588 40.0743 48.8475 40.0743H42.34C42.0598 40.0743 41.7484 39.8256 41.6238 39.577L39.0707 34.3862L36.5175 39.577C36.393 39.8256 36.0816 40.0743 35.8014 40.0743H29.2939C28.9826 40.0743 28.7958 39.8567 28.9515 39.577L34.5248 29.3508L28.9515 19.1247C28.7958 18.8449 28.9826 18.6273 29.2939 18.6273H35.7702C36.0505 18.6273 36.3619 18.876 36.4864 19.1247L39.0707 24.6262L41.655 19.1247C41.7795 18.876 42.0909 18.6273 42.3711 18.6273H48.8475C49.1588 18.6273 49.3456 18.8449 49.1899 19.1247L43.6166 29.3508ZM64.0394 31.5887L68.9631 39.577C69.118 39.8567 68.9012 40.0743 68.6225 40.0743H61.9956C61.6859 40.0743 61.4071 39.8567 61.2833 39.577L58.0627 32.8009H57.6911V39.6391C57.6911 39.8567 57.4744 40.0743 57.1957 40.0743H51.7454C51.4977 40.0743 51.2809 39.8567 51.2809 39.6391V19.0936C51.2809 18.8449 51.4977 18.6273 51.7454 18.6273H59.9207C64.6897 18.6273 67.8484 21.4248 67.8484 25.652C67.8484 28.1075 66.3619 30.5941 64.0394 31.5887ZM57.6767 27.4412H59.4512C60.4737 27.4412 61.1654 26.8009 61.1654 25.8253C61.1654 24.8497 60.4737 24.2094 59.4512 24.2094H57.6767V27.4412ZM71.4875 18.6273H78.8663C84.3382 18.6273 87.6208 21.5802 87.6208 26.025C87.6208 30.4698 84.3382 33.4226 78.8663 33.4226H77.5844V39.6391C77.5844 39.8567 77.3655 40.0743 77.0842 40.0743H71.4875C71.2687 40.0743 71.0498 39.8567 71.0498 39.6391V19.0936C71.0498 18.8449 71.2687 18.6273 71.4875 18.6273ZM77.4457 27.7349H79.08C80.18 27.7349 80.9343 27.0179 80.9343 25.9722C80.9343 24.9265 80.18 24.2094 79.08 24.2094H77.4457V27.7349ZM96.3203 34.4794H102.047C102.263 34.4794 102.448 34.6659 102.448 34.9145L102.017 39.6391C101.985 39.8567 101.77 40.0743 101.524 40.0743H90.4087C90.1622 40.0743 89.9462 39.8567 89.9462 39.6391V19.0936C89.9462 18.8449 90.1622 18.6273 90.4087 18.6273H95.8585C96.1051 18.6273 96.3203 18.8449 96.3203 19.0936V34.4794Z" fill="white"/>
<path fill-rule="evenodd" clip-rule="evenodd" d="M115.14 36.706H121.915C122.636 36.706 123.221 37.2906 123.221 38.0118C123.221 38.1399 123.202 38.2674 123.165 38.3901L122.938 39.1413C122.77 39.6952 122.259 40.0742 121.681 40.0742H111.068C110.342 40.0742 109.755 39.4861 109.755 38.7607V19.7838C109.755 19.0583 110.342 18.4703 111.068 18.4703H112.513C113.239 18.4703 113.827 19.0583 113.827 19.7838V35.3925C113.827 36.118 114.414 36.706 115.14 36.706ZM135.542 35.5635H131.208C130.617 35.5635 130.099 35.9577 129.942 36.5269L129.228 39.1108C129.07 39.68 128.552 40.0742 127.961 40.0742H126.469C125.744 40.0742 125.155 39.4861 125.155 38.7607C125.155 38.6249 125.177 38.4897 125.218 38.3603L131.294 19.3832C131.468 18.8394 131.973 18.4703 132.544 18.4703H134.319C134.893 18.4703 135.4 18.8427 135.572 19.3901L141.533 38.3671C141.751 39.0592 141.366 39.7964 140.674 40.0138C140.547 40.0539 140.414 40.0742 140.281 40.0742H138.78C138.188 40.0742 137.67 39.6781 137.513 39.107L136.81 36.5307C136.653 35.9596 136.134 35.5635 135.542 35.5635ZM131.291 31.0307H135.766L133.558 23.4944L131.291 31.0307ZM143.561 38.7607V19.7838C143.561 19.0583 144.15 18.4703 144.875 18.4703H150.745C151.911 18.4703 152.971 18.589 153.927 18.8264C154.881 19.0638 155.696 19.4248 156.373 19.9096C157.049 20.3943 157.57 21.0076 157.938 21.7495C158.305 22.4913 158.488 23.3667 158.488 24.3758C158.479 25.3847 158.211 26.2898 157.688 27.0911C157.164 27.8924 156.392 28.5007 155.374 28.9162C155.99 29.0744 156.524 29.3118 156.975 29.6283C157.425 29.9449 157.8 30.3183 158.099 30.7486C158.398 31.1789 158.618 31.6488 158.76 32.1582C158.902 32.6676 158.973 33.1944 158.973 33.7384C158.973 34.7771 158.797 35.692 158.444 36.4834C158.092 37.2748 157.588 37.9375 156.931 38.4717C156.275 39.0059 155.476 39.4065 154.536 39.6736C153.596 39.9406 152.538 40.0742 151.363 40.0742H144.875C144.15 40.0742 143.561 39.4861 143.561 38.7607ZM147.538 31.996V35.3982C147.538 36.1235 148.127 36.7116 148.852 36.7116H151.119C152.216 36.7019 153.055 36.4283 153.632 35.8908C154.209 35.3532 154.498 34.6487 154.498 33.7769C154.508 32.8085 154.25 32.053 153.725 31.5107C153.2 30.9683 152.388 30.6923 151.291 30.6826H148.852C148.127 30.6826 147.538 31.2706 147.538 31.996ZM148.852 27.6681H150.75C151.948 27.6585 152.87 27.4221 153.516 26.9592C154.16 26.4962 154.489 25.8162 154.498 24.9192C154.498 23.9355 154.176 23.229 153.531 22.7998C152.885 22.3706 151.953 22.1511 150.734 22.1415H148.852C148.127 22.1415 147.538 22.7296 147.538 23.4549V26.3546C147.538 27.0801 148.127 27.6681 148.852 27.6681ZM172.419 34.1743C172.419 33.7898 172.353 33.43 172.219 33.0948C172.085 32.7596 171.857 32.4466 171.535 32.1559C171.214 31.865 170.793 31.5988 170.273 31.3573C169.753 31.1159 169.107 30.8916 168.335 30.6846C167.394 30.4283 166.496 30.1079 165.64 29.7234C164.783 29.3389 164.028 28.8756 163.375 28.3334C162.721 27.7913 162.199 27.1604 161.808 26.4407C161.417 25.7211 161.221 24.8931 161.221 23.9565C161.221 23.0497 161.415 22.2265 161.8 21.4871C162.186 20.7478 162.721 20.1169 163.404 19.5944C164.088 19.072 164.895 18.6703 165.825 18.3893C166.756 18.1083 167.766 17.9679 168.855 17.9679C169.984 17.9679 171.016 18.1305 171.951 18.4559C172.888 18.7812 173.691 19.2371 174.365 19.8236C175.038 20.4102 175.563 21.1076 175.939 21.9159C176.065 22.1868 176.176 22.5458 176.27 22.9927C176.42 23.7025 175.966 24.3993 175.256 24.5492C175.167 24.5681 175.076 24.5776 174.985 24.5776H173.548C172.94 24.5776 172.412 24.1608 172.27 23.5699C172.24 23.4433 172.208 23.3356 172.174 23.2468C172.021 22.8426 171.793 22.4951 171.491 22.2043C171.189 21.9135 170.813 21.6867 170.362 21.5241C169.912 21.3615 169.385 21.2801 168.78 21.2801C168.226 21.2801 167.734 21.3467 167.303 21.4797C166.872 21.6128 166.509 21.8001 166.212 22.0417C165.914 22.2832 165.689 22.5691 165.535 22.8993C165.382 23.2295 165.305 23.5868 165.305 23.9713C165.305 24.3755 165.407 24.7403 165.61 25.0655C165.812 25.3908 166.107 25.6842 166.493 25.9454C166.88 26.2066 167.348 26.4456 167.897 26.6625C168.446 26.8794 169.068 27.0815 169.761 27.2688C170.751 27.5547 171.662 27.9046 172.493 28.3187C173.325 28.7327 174.041 29.2231 174.64 29.79C175.239 30.3568 175.704 31.0025 176.036 31.727C176.368 32.4516 176.533 33.2575 176.533 34.1447C176.533 35.091 176.343 35.9314 175.961 36.6658C175.58 37.4002 175.053 38.0213 174.379 38.529C173.707 39.0366 172.904 39.4211 171.974 39.6823C171.043 39.9436 170.028 40.0742 168.929 40.0742C168.246 40.0742 167.565 40.0126 166.887 39.8893C166.209 39.7661 165.56 39.5764 164.941 39.3201C164.323 39.0638 163.746 38.7434 163.212 38.3589C162.677 37.9744 162.213 37.5259 161.822 37.0133C161.431 36.5007 161.125 35.9191 160.901 35.2685C160.846 35.1068 160.796 34.9054 160.751 34.6642C160.618 33.9511 161.088 33.2651 161.801 33.1319C161.88 33.117 161.961 33.1096 162.042 33.1096H163.538C164.16 33.1096 164.697 33.546 164.824 34.1551C164.879 34.4221 164.941 34.6305 165.009 34.7805C165.216 35.2438 165.506 35.6233 165.877 35.9191C166.248 36.2148 166.694 36.4317 167.214 36.5697C167.734 36.7077 168.306 36.7767 168.929 36.7767C169.484 36.7767 169.976 36.7126 170.407 36.5845C170.838 36.4563 171.201 36.2789 171.498 36.0522C171.795 35.8254 172.024 35.5518 172.182 35.2315C172.34 34.9111 172.419 34.5587 172.419 34.1743Z" fill="#6464FF"/>
</g>
<defs>
<clipPath id="clip0">
<rect width="220" height="50" fill="white"/>
</clipPath>
</defs>
</svg>
