<svg width="1440" height="400" viewBox="0 0 1440 400" fill="none" xmlns="http://www.w3.org/2000/svg">
<rect width="1440" height="400" fill="#19FF83"/>
<rect width="1440" height="400" fill="#19FF83"/>
<mask id="mask0" mask-type="alpha" maskUnits="userSpaceOnUse" x="0" y="0" width="1440" height="400">
<rect width="1440" height="400" fill="#0DEC05"/>
</mask>
<g mask="url(#mask0)">
<path d="M875.56 96.1261V53.6479L964.833 142.049C997.125 174.09 997.125 225.961 964.833 258.002L875.56 346.403V303.925L943.374 236.711C963.791 216.464 963.791 183.587 943.374 163.235L875.56 96.1261Z" stroke="#1D1D1D" stroke-width="2" stroke-miterlimit="10"/>
<path d="M1223.29 400.152H1202.04L1246.21 355.378C1262.14 339.2 1288.08 339.2 1304.12 355.378L1348.29 400.048H1327.04L1293.5 366.023C1283.39 355.795 1266.94 355.795 1256.83 366.023L1223.29 400.152Z" stroke="#1D1D1D" stroke-width="2" stroke-miterlimit="10"/>
<path d="M1326.72 0.00219727H1347.97L1303.81 44.7765C1287.87 60.9536 1261.93 60.9536 1245.89 44.7765L1201.72 0.106604H1222.97L1256.51 34.1308C1266.62 44.359 1283.08 44.359 1293.18 34.1308L1326.72 0.00219727Z" stroke="#1D1D1D" stroke-width="2" stroke-miterlimit="10"/>
<path d="M1075.34 126.81V148.101L1030.66 103.849C1014.51 87.8803 1014.51 61.8925 1030.66 45.8196L1075.24 1.56714V22.8584L1041.28 56.4653C1031.07 66.5891 1031.07 83.0794 1041.28 93.2032L1075.34 126.81Z" stroke="#1D1D1D" stroke-width="2" stroke-miterlimit="10"/>
<path d="M1075.34 376.983V398.274L1030.66 354.022C1014.51 338.053 1014.51 312.065 1030.66 295.992L1075.24 251.74V273.031L1041.28 306.638C1031.07 316.762 1031.07 333.252 1041.28 343.376L1075.34 376.983Z" stroke="#1D1D1D" stroke-width="2" stroke-miterlimit="10"/>
<path d="M1328.09 145.91H1348.3L1306.21 188.597C1291.01 204.044 1266.32 204.044 1251.11 188.597L1209.03 145.91H1229.23L1261.21 178.264C1270.9 188.075 1286.53 188.075 1296.11 178.264L1328.09 145.91Z" fill="#1D1D1D"/>
<path d="M1229.01 264.474H1208.81L1251.1 221.578C1266.31 206.132 1290.99 206.132 1306.2 221.578L1348.5 264.474H1328.29L1296.1 231.806C1286.41 221.996 1270.79 221.996 1261.2 231.806L1229.01 264.474Z" fill="#1D1D1D"/>
<path d="M619 96.1251V53.6469L708.273 142.047C740.565 174.089 740.565 225.96 708.273 258.001L619 346.402V303.924L686.814 236.71C707.231 216.463 707.231 183.586 686.814 163.234L619 96.1251Z" stroke="#1D1D1D" stroke-width="2" stroke-miterlimit="10"/>
<path d="M818.791 126.81V148.101L774.103 103.849C757.956 87.8804 757.956 61.8925 774.103 45.8197L818.687 1.56714V22.8585L784.832 56.5697C774.623 66.6935 774.623 83.1838 784.832 93.3076L818.791 126.81Z" stroke="#1D1D1D" stroke-width="2" stroke-miterlimit="10"/>
<path d="M818.791 376.983V398.274L774.103 354.022C757.956 338.053 757.956 312.066 774.103 295.993L818.687 251.74V273.032L784.728 306.638C774.519 316.762 774.519 333.252 784.728 343.376L818.791 376.983Z" stroke="#1D1D1D" stroke-width="2" stroke-miterlimit="10"/>
</g>
</svg>
